<?xml version="1.0" encoding="UTF-8"?> <svg xmlns="http://www.w3.org/2000/svg" viewBox="0 0 255.99 255.99"><defs><style>.cls-1{fill:#8fc7e8;}.cls-2{fill:#fff;}.cls-3{fill:#002d6b;}</style></defs><title>Resurs 1</title><g id="Lager_2" data-name="Lager 2"><g id="Lager_1-2" data-name="Lager 1"><path class="cls-1" d="M128,256A128,128,0,1,0,0,128,128,128,0,0,0,128,256"></path><path class="cls-2" d="M243.85,128A115.85,115.85,0,1,1,128,12.15,115.85,115.85,0,0,1,243.85,128m6.58,0A122.44,122.44,0,1,0,128,250.43,122.43,122.43,0,0,0,250.43,128"></path><path class="cls-3" d="M197.11,197.75c0-3.19-2.74-5-5.29-6.28-1.27-.64-2.23-1.21-2.23-1.81,0-.86.74-1.34,2.17-1.34a24.9,24.9,0,0,1,3.44.44c.7.07,1.31-3.18.83-3.37a12.3,12.3,0,0,0-4.56-.55c-3.76,0-7.52,1.5-7.52,5,0,3.25,2.74,4.49,5,5.54,1.3.64,2.39,1.37,2.39,2.2,0,1.12-1,1.5-2.68,1.5a12.8,12.8,0,0,1-4.4-.67c-.8-.22-.7,3.38-.38,3.54a17,17,0,0,0,6.37,1c3,0,6.88-.74,6.88-5.23m-14.48,0c0-3.19-2.74-5-5.29-6.28-1.28-.64-2.23-1.21-2.23-1.81,0-.86.73-1.34,2.16-1.34a24.9,24.9,0,0,1,3.44.44c.7.07,1.31-3.18.83-3.37a12.27,12.27,0,0,0-4.55-.55c-3.76,0-7.52,1.5-7.52,5,0,3.25,2.74,4.49,5,5.54,1.3.64,2.39,1.37,2.39,2.2,0,1.12-1,1.5-2.68,1.5a12.8,12.8,0,0,1-4.4-.67c-.79-.22-.7,3.38-.38,3.54a17,17,0,0,0,6.37,1c3,0,6.89-.74,6.89-5.23m-21-1.15c0,.89-.58,2.81-2.17,2.81s-2.26-1.76-2.26-3.67V192c0-2.16.51-3.57,2.13-3.57,1.85,0,2.3,1.88,2.3,3Zm6,4.46V186.47c0-.7-.07-1.05-1.21-1.05H163c-.54,0-.8.51-.8,1.05v.76c-.92-1.56-2.36-2.35-5.19-2.35-3.38,0-5.61,2.9-5.61,9.27s2.52,8.83,5.41,8.83a6.28,6.28,0,0,0,5.39-2.39v1c0,.86.54.95,1.21.95h3.25c1,0,1-.67,1-1.5m-18.28.19V179.94c0-.7-.06-1.05-1.15-1.05h-3.41c-.63,0-.86.35-.86.89v21.7c0,.92.13,1.08,1.05,1.08h3.45c.92,0,.92-.48.92-1.31m-13.59-4.39a2.35,2.35,0,0,1-2.26,2.51c-1.66,0-2.17-1.56-2.17-3.44V192.2c0-1.91.64-3.76,2.23-3.76,1.76,0,2.2,1.95,2.2,3.16Zm5.93,3.5V186.88c0-.76,0-1.46-1-1.46H137.5c-.86,0-1.21,0-1.21,1.69a5.39,5.39,0,0,0-4.58-2.23c-4.21,0-6.22,3-6.22,8.89,0,6.78,2.42,9.21,5.64,9.21,2.68,0,4.14-.71,5.16-2.2,0,.09,0,1.24,0,1.34,0,2.38-1.09,3.5-2.71,3.5A21.77,21.77,0,0,1,129,205c-.64-.16-1.4-.19-1.4.48v2.42c0,1.12.28.86.92,1a22.34,22.34,0,0,0,5.74.51c4.3,0,7.39-1.59,7.39-9m-18,.54V190.52c0-4.08-2.58-5.48-5-5.48a5.92,5.92,0,0,0-5.23,2.74,4.57,4.57,0,0,0-4.43-2.74,5.73,5.73,0,0,0-4.68,2c0-1.46-.51-1.62-1.18-1.62H99.8c-.64,0-.86.51-.86,1.14v14.63c0,.83.28,1.37,1.27,1.37h3.22c.93,0,.93-.67.93-1.5V192.4a2.25,2.25,0,0,1,2.23-2.52c1.53,0,1.88,1.15,1.88,2.32v9.12c0,.8.38,1.24,1,1.24h3.53c.74,0,1-.7,1-1.66v-9a2.26,2.26,0,0,1,2.2-2.07c1.53,0,1.88,1.15,1.88,2.32v9.12c0,.8.16,1.24,1.21,1.24h3.38c.76,0,1-.7,1-1.66m-32.15-9.46c0,.45,0,.73-.35.73h-4.3c-.45,0-.42-.32-.42-.76,0-1.47.71-3.19,2.65-3.19s2.39,1.53,2.42,3.22m5.48,2.45v-2.48c0-3.92-2.48-6.53-7.77-6.53-5.74,0-8.32,2.9-8.32,9.24,0,5.48,2.33,8.89,9.21,8.89a41.71,41.71,0,0,0,5.58-.45c.82-.19,1-.48,1-1.21V199c0-.41-.35-.64-.93-.51a26.48,26.48,0,0,1-5.13.51c-2.8,0-4.36-1.3-4.36-3.57h9c1.6,0,1.69-.44,1.69-1.53m-18,7.65V180.16c0-.67-.07-.92-1-.92H74.17c-.79,0-1.14.22-1.14.82v7.59c0,.38-.16.54-.55.54H66.75c-.51,0-.73-.1-.73-.61v-7.29c0-.83-.35-1-1.28-1H60.92c-.74,0-.93.22-.93.82v21.39c0,.79.13,1.11.83,1.11h3.86c.95,0,1.34-.19,1.34-1v-8.32c0-.51.12-.54.51-.54h5.89c.51,0,.61.13.61.64v8.22c0,.7.28,1,1,1h4c.89,0,1-.19,1-1"></path><path class="cls-3" d="M199.12,177.62a4.22,4.22,0,0,0-1.56,1.55,4.73,4.73,0,0,0-.47,1.09,4.51,4.51,0,0,0-.16,1.16,4.28,4.28,0,0,0,1.24,3,4.38,4.38,0,0,0,1.42,1,4.11,4.11,0,0,0,1.66.34,4.26,4.26,0,0,0,1.65-.33,4.45,4.45,0,0,0,1.42-.94,4.15,4.15,0,0,0,1-1.39,4.25,4.25,0,0,0,.33-1.67,4.37,4.37,0,0,0-.32-1.65,4.14,4.14,0,0,0-.91-1.39,4.33,4.33,0,0,0-3.12-1.31,4.3,4.3,0,0,0-2.13.55m3.55.46a3.46,3.46,0,0,1,1.18.81,3.36,3.36,0,0,1,.77,1.17,3.82,3.82,0,0,1,.26,1.42,3.37,3.37,0,0,1-.28,1.35,3.44,3.44,0,0,1-.79,1.13,3.91,3.91,0,0,1-1.2.79,3.55,3.55,0,0,1-1.36.27,3.51,3.51,0,0,1-1.38-.28,3.77,3.77,0,0,1-1.18-.81,3.52,3.52,0,0,1-.77-1.15,3.56,3.56,0,0,1-.27-1.37,3.52,3.52,0,0,1,.28-1.39,4,4,0,0,1,.82-1.2,3.56,3.56,0,0,1,1.14-.76,3.63,3.63,0,0,1,1.37-.26,3.51,3.51,0,0,1,1.41.28m-3.21,5.65h1.17v-2h.58l.91,2h1.31l-1.08-2.15a1.4,1.4,0,0,0,.78-.46,1.24,1.24,0,0,0,.27-.81,1.18,1.18,0,0,0-.51-1,2.81,2.81,0,0,0-1.54-.34h-1.89Zm1.69-4.06a1.38,1.38,0,0,1,.79.17.62.62,0,0,1,.26.54.58.58,0,0,1-.24.52,1.44,1.44,0,0,1-.75.16h-.58v-1.39Z"></path><path class="cls-3" d="M108.28,166.88c-.23-1.5-9.13-75.16-9.65-80.53s-4.08-8.81-9-8.81a8.84,8.84,0,0,0-8.9,8.76A9.42,9.42,0,0,0,85.21,94a14,14,0,0,0,5.45,1.76c2.27.37,5,1.85,4.47,5.47a5,5,0,0,1-4.69,4.45,16,16,0,0,1-7.44-1,20.77,20.77,0,0,1-6.37-3.7A19.42,19.42,0,0,1,69.86,86.3,19.68,19.68,0,0,1,89.64,66.77h0c10.9,0,19,8,19.93,19.78s5,78.63,5.15,80.15c.11,1.75-.78,3.47-3,3.47A3.48,3.48,0,0,1,108.28,166.88Z"></path><path class="cls-3" d="M119.18,167c-.06-.43-.76-13-1.62-28-1.34-23.33-1.63-30.93-2.94-52.5s-19.42-24.81-25-24.72A25.47,25.47,0,0,0,75.2,66.37a24.89,24.89,0,0,0-5.82,5.72A24.2,24.2,0,0,0,69.73,101a24.48,24.48,0,0,0,19.56,9.84c1.22,0,6.41-.28,7.42,4.21a5.33,5.33,0,0,1-4.27,6.25,26.44,26.44,0,0,1-7.22.11c-18.24-1.9-31.33-17-31.33-35.08,0-9.41,4-18,10.48-25C69.86,55.54,79.34,51,90.51,51c21,0,35.06,14.46,35.07,36.85,0,0,.08,77.81.08,78.19,0,1.34,0,2.43-.87,3.3a2.92,2.92,0,0,1-2.13.81A3.27,3.27,0,0,1,119.18,167Z"></path><path class="cls-3" d="M144.24,170.17c-2.2,0-3.08-1.72-3-3.47.1-1.52,4.17-68.39,5.14-80.15s9-19.78,19.93-19.78h0A19.68,19.68,0,0,1,186.13,86.3,19.45,19.45,0,0,1,179.37,101a20.89,20.89,0,0,1-6.38,3.7,16,16,0,0,1-7.44,1,5,5,0,0,1-4.68-4.45c-.5-3.62,2.19-5.1,4.46-5.47A14,14,0,0,0,170.78,94a9.39,9.39,0,0,0,4.47-7.73,8.84,8.84,0,0,0-8.9-8.76c-4.91,0-8.48,3.44-9,8.81s-9.42,79-9.64,80.53A3.48,3.48,0,0,1,144.24,170.17Z"></path><path class="cls-3" d="M133.33,170.17a2.94,2.94,0,0,1-2.13-.81c-.85-.87-.87-2-.87-3.3,0-.38.08-78.19.08-78.19,0-22.39,14.11-36.85,35.07-36.85,11.18,0,20.65,4.52,26.14,10.34,6.53,6.91,10.49,15.54,10.49,25,0,18.1-13.1,33.18-31.33,35.08a26.44,26.44,0,0,1-7.22-.11,5.33,5.33,0,0,1-4.27-6.25c1-4.49,6.19-4.19,7.42-4.21A24.48,24.48,0,0,0,186.26,101a24.2,24.2,0,0,0,.35-28.89,24.85,24.85,0,0,0-5.81-5.72,25.51,25.51,0,0,0-14.45-4.59c-5.56-.09-23.67,3.15-25,24.72s-1.6,29.17-2.93,52.5c-.87,15-1.57,27.56-1.63,28A3.27,3.27,0,0,1,133.33,170.17Z"></path></g></g></svg> 